<?xml version="1.0" encoding="UTF-8" standalone="no"?>
<svg xmlns:ffdec="https://www.free-decompiler.com/flash" xmlns:xlink="http://www.w3.org/1999/xlink" ffdec:objectType="shape" height="26.4px" width="26.4px" xmlns="http://www.w3.org/2000/svg">
  <g transform="matrix(1.0, 0.0, 0.0, 1.0, 13.2, 13.2)">
    <path d="M9.3 -9.35 Q13.2 -5.45 13.2 0.0 13.2 5.45 9.3 9.3 5.45 13.2 0.0 13.2 -5.45 13.2 -9.35 9.3 -13.2 5.45 -13.2 0.0 -13.2 -5.45 -9.35 -9.35 -5.45 -13.2 0.0 -13.2 5.45 -13.2 9.3 -9.35" fill="#0024ff" fill-rule="evenodd" stroke="none"/>
    <path d="M6.7 -6.7 Q9.5 -3.9 9.5 0.0 9.5 3.95 6.7 6.7 3.95 9.5 0.0 9.5 -3.9 9.5 -6.7 6.7 -9.5 3.95 -9.5 0.0 -9.5 -3.9 -6.7 -6.7 -3.9 -9.5 0.0 -9.5 3.95 -9.5 6.7 -6.7" fill="#ffffff" fill-rule="evenodd" stroke="none"/>
    <path d="M3.7 -3.7 Q5.2 -2.15 5.25 0.0 5.2 2.15 3.7 3.7 2.15 5.2 0.0 5.25 -2.15 5.2 -3.7 3.7 -5.2 2.15 -5.2 0.0 -5.2 -2.15 -3.7 -3.7 -2.15 -5.2 0.0 -5.2 2.15 -5.2 3.7 -3.7" fill="#ff0000" fill-rule="evenodd" stroke="none"/>
  </g>
</svg>
